<svg viewBox="0 0 400 400" xmlns="http://www.w3.org/2000/svg">
  <!-- Background circle -->
  <circle cx="200" cy="200" r="180" fill="#e0f2fe" stroke="#0284c7" stroke-width="8"/>
  
  <!-- Professional shirt/blazer -->
  <path d="M80 320 Q80 280 120 280 L280 280 Q320 280 320 320 L320 400 L80 400 Z" fill="#1e40af"/>
  <path d="M120 280 Q140 270 160 270 L240 270 Q260 270 280 280 L280 320 L120 320 Z" fill="#ffffff"/>
  
  <!-- Face -->
  <circle cx="200" cy="180" r="80" fill="#fbbf24" stroke="#f59e0b" stroke-width="2"/>
  
  <!-- Hair - short, professional -->
  <path d="M120 140 Q200 100 280 140 Q280 120 260 110 Q200 80 140 110 Q120 120 120 140" fill="#374151"/>
  
  <!-- Eyes -->
  <ellipse cx="175" cy="170" rx="12" ry="8" fill="#ffffff"/>
  <ellipse cx="225" cy="170" rx="12" ry="8" fill="#ffffff"/>
  <circle cx="175" cy="170" r="6" fill="#1f2937"/>
  <circle cx="225" cy="170" r="6" fill="#1f2937"/>
  <circle cx="177" cy="168" r="2" fill="#ffffff"/>
  <circle cx="227" cy="168" r="2" fill="#ffffff"/>
  
  <!-- Eyebrows - focused expression -->
  <path d="M165 155 Q175 150 185 155" stroke="#374151" stroke-width="3" fill="none" stroke-linecap="round"/>
  <path d="M215 155 Q225 150 235 155" stroke="#374151" stroke-width="3" fill="none" stroke-linecap="round"/>
  
  <!-- Nose -->
  <path d="M200 180 L195 195 Q200 200 205 195 Z" fill="#f59e0b"/>
  
  <!-- Mouth - determined, professional -->
  <path d="M185 210 Q200 215 215 210" stroke="#374151" stroke-width="3" fill="none" stroke-linecap="round"/>
  
  <!-- Glasses - optional professional touch -->
  <rect x="160" y="160" width="30" height="20" rx="5" fill="none" stroke="#374151" stroke-width="2"/>
  <rect x="210" y="160" width="30" height="20" rx="5" fill="none" stroke="#374151" stroke-width="2"/>
  <path d="M190 170 Q200 165 210 170" stroke="#374151" stroke-width="2" fill="none"/>
  
  <!-- Name label -->
  <rect x="50" y="350" width="100" height="30" rx="15" fill="#1e40af"/>
  <text x="100" y="370" text-anchor="middle" fill="white" font-family="Arial, sans-serif" font-size="16" font-weight="bold">Alex</text>
  
  <!-- Role indicator -->
  <text x="200" y="390" text-anchor="middle" fill="#374151" font-family="Arial, sans-serif" font-size="12">Senior Analyst</text>
</svg>