<svg viewBox="0 0 400 400" xmlns="http://www.w3.org/2000/svg">
  <!-- Background circle -->
  <circle cx="200" cy="200" r="180" fill="#e0e7ff" stroke="#6366f1" stroke-width="8"/>
  
  <!-- Professional shirt -->
  <path d="M80 320 Q80 280 120 280 L280 280 Q320 280 320 320 L320 400 L80 400 Z" fill="#4338ca"/>
  <path d="M120 280 Q140 270 160 270 L240 270 Q260 270 280 280 L280 320 L120 320 Z" fill="#ffffff"/>
  
  <!-- Face -->
  <circle cx="200" cy="180" r="80" fill="#fde68a" stroke="#f59e0b" stroke-width="2"/>
  
  <!-- Hair - strategic, thoughtful -->
  <path d="M120 140 Q200 95 280 140 Q280 125 265 115 Q200 85 135 115 Q120 125 120 140" fill="#1f2937"/>
  
  <!-- Eyes - thoughtful, analytical -->
  <ellipse cx="175" cy="170" rx="12" ry="8" fill="#ffffff"/>
  <ellipse cx="225" cy="170" rx="12" ry="8" fill="#ffffff"/>
  <circle cx="175" cy="170" r="6" fill="#059669"/>
  <circle cx="225" cy="170" r="6" fill="#059669"/>
  <circle cx="177" cy="168" r="2" fill="#ffffff"/>
  <circle cx="227" cy="168" r="2" fill="#ffffff"/>
  
  <!-- Eyebrows - thoughtful -->
  <path d="M165 155 Q175 152 185 155" stroke="#1f2937" stroke-width="3" fill="none" stroke-linecap="round"/>
  <path d="M215 155 Q225 152 235 155" stroke="#1f2937" stroke-width="3" fill="none" stroke-linecap="round"/>
  
  <!-- Glasses - analytical look -->
  <rect x="160" y="160" width="30" height="20" rx="5" fill="none" stroke="#1f2937" stroke-width="2"/>
  <rect x="210" y="160" width="30" height="20" rx="5" fill="none" stroke="#1f2937" stroke-width="2"/>
  <path d="M190 170 Q200 165 210 170" stroke="#1f2937" stroke-width="2" fill="none"/>
  
  <!-- Nose -->
  <path d="M200 180 L195 195 Q200 200 205 195 Z" fill="#f59e0b"/>
  
  <!-- Mouth - thoughtful expression -->
  <path d="M185 210 Q200 213 215 210" stroke="#374151" stroke-width="3" fill="none" stroke-linecap="round"/>
  
  <!-- Name label -->
  <rect x="230" y="350" width="120" height="30" rx="15" fill="#4338ca"/>
  <text x="290" y="370" text-anchor="middle" fill="white" font-family="Arial, sans-serif" font-size="16" font-weight="bold">David</text>
  
  <!-- Role indicator -->
  <text x="200" y="390" text-anchor="middle" fill="#374151" font-family="Arial, sans-serif" font-size="12">Product Manager</text>
</svg>