<svg viewBox="0 0 400 400" xmlns="http://www.w3.org/2000/svg">
  <!-- Background circle -->
  <circle cx="200" cy="200" r="180" fill="#ecfdf5" stroke="#10b981" stroke-width="8"/>
  
  <!-- Professional executive attire -->
  <path d="M80 320 Q80 280 120 280 L280 280 Q320 280 320 320 L320 400 L80 400 Z" fill="#1e40af"/>
  <path d="M120 280 Q140 270 160 270 L240 270 Q260 270 280 280 L280 320 L120 320 Z" fill="#ffffff"/>
  
  <!-- Face -->
  <circle cx="200" cy="180" r="80" fill="#fed7aa" stroke="#ea580c" stroke-width="2"/>
  
  <!-- Hair - professional, authoritative -->
  <path d="M120 140 Q200 88 280 140 Q282 148 275 155 Q250 145 225 150 Q200 155 175 150 Q150 145 125 155 Q118 148 120 140" fill="#92400e"/>
  
  <!-- Eyes - confident, supportive -->
  <ellipse cx="175" cy="170" rx="12" ry="8" fill="#ffffff"/>
  <ellipse cx="225" cy="170" rx="12" ry="8" fill="#ffffff"/>
  <circle cx="175" cy="170" r="6" fill="#0d9488"/>
  <circle cx="225" cy="170" r="6" fill="#0d9488"/>
  <circle cx="177" cy="168" r="2" fill="#ffffff"/>
  <circle cx="227" cy="168" r="2" fill="#ffffff"/>
  
  <!-- Eyebrows - confident -->
  <path d="M165 155 Q175 151 185 155" stroke="#92400e" stroke-width="3" fill="none" stroke-linecap="round"/>
  <path d="M215 155 Q225 151 235 155" stroke="#92400e" stroke-width="3" fill="none" stroke-linecap="round"/>
  
  <!-- Nose -->
  <path d="M200 180 L195 195 Q200 200 205 195 Z" fill="#ea580c"/>
  
  <!-- Mouth - confident, supportive smile -->
  <path d="M185 210 Q200 220 215 210" stroke="#374151" stroke-width="3" fill="none" stroke-linecap="round"/>
  
  <!-- Professional glasses -->
  <rect x="160" y="160" width="30" height="20" rx="3" fill="none" stroke="#1f2937" stroke-width="2"/>
  <rect x="210" y="160" width="30" height="20" rx="3" fill="none" stroke="#1f2937" stroke-width="2"/>
  <path d="M190 170 Q200 168 210 170" stroke="#1f2937" stroke-width="2" fill="none"/>
  
  <!-- Professional earrings -->
  <circle cx="145" cy="185" r="3" fill="#059669"/>
  <circle cx="255" cy="185" r="3" fill="#059669"/>
  
  <!-- Name label -->
  <rect x="140" y="350" width="120" height="30" rx="15" fill="#10b981"/>
  <text x="200" y="370" text-anchor="middle" fill="white" font-family="Arial, sans-serif" font-size="16" font-weight="bold">Leslie</text>
  
  <!-- Role indicator -->
  <text x="200" y="390" text-anchor="middle" fill="#374151" font-family="Arial, sans-serif" font-size="12">Engineering Manager</text>
</svg>